<svg viewBox="0 0 120 120" fill="none" xmlns="http://www.w3.org/2000/svg" title="Logo - Footer"
    aria-label="Logo - Footer" class="Icon_svg__7Bxot Icon_rotation-0deg__LPCq3" style="--icon-size:66px">
    <g clip-path="url(#logo-footer_svg__a)">
        <g clip-path="url(#logo-footer_svg__b)">
            <path
                d="M112.457 120H7.371c-4.166 0-7.54-3.373-7.364-7.533V7.532C-.173 3.372 3.205 0 7.37 0h105.086c4.166 0 7.541 3.372 7.541 7.532V112.47c0 4.16-3.377 7.532-7.541 7.532V120Z"
                fill="#009BE0"></path>
            <path
                d="M92.686 33.581c0 3.395-2.704 6.296-6.287 6.296h-2.16c-.32 0-.581.261-.581.58v6.184c0 .32.26.58.58.58h3.844c5.659 0 11.985-5.835 12.005-13.65-.02-7.623-6.304-13.801-13.966-13.65-7.488.15-13.41 6.425-13.41 13.913v56.09c0 .32.26.581.58.581h6.184c.32 0 .58-.26.58-.58V33.608c0-3.515 2.781-6.334 6.364-6.334 3.293 0 6.267 2.696 6.267 6.306Z"
                fill="#fff"></path>
            <path
                d="m95.887 10.773-.048-.02c-9.603-3.613-19.5-1.5-26.33 4.949-5.002 4.725-7.723 11.376-7.723 18.255v55.97c0 .32.261.581.58.581h6.184c.32 0 .581-.26.581-.58V33.884c0-9.649 7.895-17.69 17.54-17.538 9.37.146 16.954 7.797 16.99 17.192v.073c-.017 4.47-1.72 8.76-4.797 12.087-3.002 3.245-6.933 5.105-10.785 5.105h-3.843c-.32 0-.58.261-.58.581v6.184c0 .32.26.58.58.58h2.16c6.817 0 13.214-2.755 17.916-7.737 4.368-4.63 6.697-10.319 6.697-16.685v-.12c0-9.674-5.541-18.494-15.125-22.837l.003.003ZM27.404 33.581c0 3.395 2.704 6.296 6.287 6.296h2.16c.32 0 .581.261.581.58v6.184c0 .32-.26.58-.58.58h-3.844c-5.659 0-11.985-5.835-12.005-13.65.02-7.623 6.304-13.801 13.966-13.65 7.662.152 13.41 6.425 13.41 13.913v56.09c0 .32-.26.581-.58.581h-6.184c-.32 0-.58-.26-.58-.58V33.608c0-3.515-2.781-6.334-6.364-6.334-3.293 0-6.267 2.696-6.267 6.306Z"
                fill="#fff"></path>
            <path
                d="m24.203 10.773.044-.02c9.604-3.613 19.502-1.5 26.33 4.949 5.002 4.725 7.724 11.376 7.724 18.255v55.97c0 .32-.261.581-.581.581h-6.183c-.32 0-.581-.26-.581-.58V33.884c0-9.649-7.895-17.69-17.54-17.538-9.645.152-16.954 7.797-16.99 17.192v.073c.017 4.47 1.72 8.76 4.797 12.087 3.002 3.245 6.933 5.105 10.785 5.105h3.843c.32 0 .58.261.58.581v6.184c0 .32-.26.58-.58.58h-2.16c-6.818 0-13.214-2.755-17.916-7.737-4.368-4.63-6.697-10.319-6.697-16.685v-.12c0-9.674 5.541-18.494 15.125-22.837v.003ZM16.477 110.534V94.61c0-.267.217-.483.483-.483h2.727c.267 0 .483.216.483.483v5.717c0 .146.095.242.24.242h5.716c.146 0 .241-.096.241-.242V94.61c0-.267.216-.483.482-.483h2.727c.267 0 .483.216.483.483v15.924a.482.482 0 0 1-.483.482H26.85a.482.482 0 0 1-.482-.482v-6.032c0-.168-.095-.241-.241-.241H20.41c-.146 0-.241.073-.241.241v6.032a.482.482 0 0 1-.483.482H16.96a.482.482 0 0 1-.483-.482ZM30.058 114.938v-2.339c0-.267.216-.483.482-.483h1.232c.698 0 1.18-.41 1.18-1.159v-11.91c0-.266.195-.482.483-.482h2.534c.266 0 .482.216.482.483v12.392c0 2.365-1.714 3.981-3.98 3.981h-1.93a.483.483 0 0 1-.483-.483Zm2.934-20.424c0-.193.169-.387.387-.387h2.688a.4.4 0 0 1 .387.387v2.205a.383.383 0 0 1-.387.388h-2.688a.383.383 0 0 1-.387-.388v-2.205ZM38.933 104.794c0-4.029 2.292-6.66 6.175-6.66 3.644 0 6.08 2.171 6.08 6.272v.87c0 .508-.315.724-.7.724h-7.574c-.169 0-.267.095-.267.289.048 1.473 1.232 2.317 2.486 2.317 1.038 0 1.641-.387 2.003-.965.194-.289.387-.409.65-.409h2.582c.266 0 .53.216.435.603-.578 2.146-2.559 3.641-5.67 3.641-3.981 0-6.2-2.654-6.2-6.682Zm3.955-1.426H47.4c.145 0 .216-.073.216-.241 0-1.254-1.013-2.244-2.508-2.244-1.353 0-2.46.99-2.486 2.244 0 .168.095.241.266.241ZM53.432 110.534v-11.46c0-.267.216-.483.482-.483h1.762c.724 0 .603.698 1.159.698.628 0 1.06-1.158 3.161-1.158 2.438 0 2.848 1.495 3.62 1.495.771 0 1.279-1.495 3.787-1.495 2.775 0 4.632 1.904 4.632 5.092v7.311a.482.482 0 0 1-.483.482H69.02a.482.482 0 0 1-.483-.482v-6.731c0-1.327-.796-2.196-2.025-2.196-1.229 0-2.026.869-2.026 2.196v6.731a.482.482 0 0 1-.482.482h-2.534a.482.482 0 0 1-.482-.482v-6.731c0-1.327-.797-2.196-2.026-2.196-1.228 0-2.025.869-2.025 2.196v6.731a.482.482 0 0 1-.483.482H53.92a.482.482 0 0 1-.483-.482h-.005ZM74.115 105.781v-2.533c0-.267.233-.483.52-.483h6.401c.287 0 .52.216.52.483v2.533c0 .267-.233.483-.52.483h-6.402c-.286 0-.519-.216-.519-.483ZM83.639 110.438v-15.73c0-.337.24-.578.578-.578h2.558c.337 0 .556.241.556.578v15.73c0 .337-.216.578-.556.578h-2.558a.557.557 0 0 1-.578-.578ZM89.97 105.877v-.026c0-.266.217-.482.483-.482h2.92c.267 0 .483.216.483.482v.026c0 1.447 1.134 2.171 3.162 2.171 1.784 0 2.968-.676 2.968-1.905 0-.892-.578-1.4-1.955-1.664l-3.21-.628c-2.942-.578-4.365-2.317-4.365-4.873 0-3.21 2.775-5.308 6.61-5.308 3.835 0 6.562 2.05 6.562 5.14v.047a.483.483 0 0 1-.483.483h-2.822a.483.483 0 0 1-.482-.483v-.047c0-1.086-1.134-1.715-2.8-1.715-1.667 0-2.727.603-2.727 1.642 0 .87.628 1.327 2.003 1.616l3.136.577c2.823.531 4.318 2.293 4.318 4.899 0 3.352-2.581 5.645-6.778 5.645-4.197 0-7.022-2.197-7.022-5.597ZM105.124 96.543c0-1.586 1.162-2.873 2.873-2.873 1.711 0 2.873 1.287 2.873 2.873 0 1.585-1.162 2.872-2.873 2.872-1.711 0-2.873-1.287-2.873-2.872Zm2.873 2.233c1.332 0 2.199-1.027 2.199-2.233 0-1.207-.867-2.234-2.199-2.234-1.333 0-2.211 1.027-2.211 2.234 0 1.206.867 2.233 2.211 2.233Zm-1.198-3.625c0-.045.056-.078.09-.078h1.481c.558 0 .945.398.945.9a.85.85 0 0 1-.468.797c-.079.045-.104.104-.056.182l.513.934c.034.057-.011.127-.078.127h-.604c-.056 0-.078-.012-.115-.068l-.502-.923c-.022-.033-.033-.044-.067-.044h-.331a.048.048 0 0 0-.045.044v.912c0 .045-.045.079-.09.079h-.581c-.033 0-.089-.034-.089-.079v-2.78l-.003-.003Zm.808 1.117h.662c.182 0 .286-.104.286-.239 0-.126-.104-.216-.286-.216h-.662c-.023 0-.045.023-.045.034v.376s.022.045.045.045Z"
                fill="#fff"></path>
            <path
                d="M92.678 90.51h10.428c.32 0 .581-.26.581-.58v-5.387h-11.01v5.968ZM103.687 81.553v-5.418c0-.32-.261-.58-.581-.58H92.678v5.998h11.009ZM83.653 84.54v-2.987h6.006v-5.998h-5.44c-.32 0-.58.26-.58.58V89.93c0 .32.26.58.58.58h5.44v-5.967h-6.006v-.002Z"
                fill="#E63221"></path>
            <path d="M103.7 81.553h-.014v2.988h.014v-2.988Z" fill="#fff"></path>
            <path d="M92.68 81.553v-5.998h-3.02v5.998h-6.006v2.988h6.007v5.97h3.019v-5.97h11.008v-2.988H92.68Z"
                fill="#fff"></path>
        </g>
    </g>
    <defs>
        <clipPath id="logo-footer_svg__a">
            <path fill="#fff" d="M0 0h120v120H0z"></path>
        </clipPath>
        <clipPath id="logo-footer_svg__b">
            <path fill="#fff" d="M0 0h120v120H0z"></path>
        </clipPath>
    </defs>
</svg>